<svg width="18" height="19" viewBox="0 0 18 19" fill="none" xmlns="http://www.w3.org/2000/svg">
<g id="Bold / Time / Calendar Minimalistic">
<g id="Vector">
<path d="M16.5 11V9.5C16.5 8.87072 16.5 8.31145 16.4903 7.8125H1.50968C1.5 8.31145 1.5 8.87072 1.5 9.5V11C1.5 13.8284 1.5 15.2426 2.37868 16.1213C3.25736 17 4.67157 17 7.5 17H10.5C13.3284 17 14.7426 17 15.6213 16.1213C16.5 15.2426 16.5 13.8284 16.5 11Z" fill="#8F91A1"/>
<path d="M5.8125 2.375C5.8125 2.06434 5.56066 1.8125 5.25 1.8125C4.93934 1.8125 4.6875 2.06434 4.6875 2.375V3.55944C3.608 3.64588 2.89933 3.85803 2.37868 4.37868C1.85803 4.89933 1.64588 5.608 1.55944 6.6875H16.4406C16.3541 5.608 16.142 4.89933 15.6213 4.37868C15.1007 3.85803 14.392 3.64588 13.3125 3.55944V2.375C13.3125 2.06434 13.0607 1.8125 12.75 1.8125C12.4393 1.8125 12.1875 2.06434 12.1875 2.375V3.50968C11.6886 3.5 11.1293 3.5 10.5 3.5H7.5C6.87072 3.5 6.31145 3.5 5.8125 3.50968V2.375Z" fill="#8F91A1"/>
</g>
</g>
</svg>
