<!DOCTYPE svg PUBLIC "-//W3C//DTD SVG 1.1//EN" "http://www.w3.org/Graphics/SVG/1.1/DTD/svg11.dtd">
<!-- Uploaded to: SVG Repo, www.svgrepo.com, Transformed by: SVG Repo Mixer Tools -->
<svg fill="#f9533a" width="800px" height="800px" viewBox="0 0 32 32" version="1.1" xmlns="http://www.w3.org/2000/svg">
<g id="SVGRepo_bgCarrier" stroke-width="0"/>
<g id="SVGRepo_tracerCarrier" stroke-linecap="round" stroke-linejoin="round"/>
<g id="SVGRepo_iconCarrier"> <title>calendar</title> <path d="M28 4.75h-0.75v-2.75c0-0.69-0.56-1.25-1.25-1.25s-1.25 0.56-1.25 1.25v0 2.75h-17.5v-2.75c0-0.69-0.56-1.25-1.25-1.25s-1.25 0.56-1.25 1.25v0 2.75h-0.75c-1.794 0.002-3.248 1.456-3.25 3.25v19.998c0.002 1.794 1.456 3.248 3.25 3.25h24c1.794-0.001 3.249-1.456 3.25-3.25v-19.998c-0.002-1.794-1.456-3.248-3.25-3.25h-0zM4 7.25h24c0.414 0 0.75 0.336 0.75 0.75v2.75h-25.5v-2.75c0.001-0.414 0.336-0.749 0.75-0.75h0zM28 28.748h-24c-0.414-0-0.75-0.336-0.75-0.75v-14.748h25.5v14.748c-0 0.414-0.336 0.75-0.75 0.75v0z"/> </g>
</svg>