<svg width="18" height="18" viewBox="0 0 18 18" fill="none" xmlns="http://www.w3.org/2000/svg">
<g id="Linear / Nature, Travel / Suitcase" clip-path="url(#clip0_1_162)">
<path id="Vector" d="M1.5 10.5C1.5 7.67157 1.5 6.25736 2.37868 5.37868C3.25736 4.5 4.67157 4.5 7.5 4.5H10.5C13.3284 4.5 14.7426 4.5 15.6213 5.37868C16.5 6.25736 16.5 7.67157 16.5 10.5C16.5 13.3284 16.5 14.7426 15.6213 15.6213C14.7426 16.5 13.3284 16.5 10.5 16.5H7.5C4.67157 16.5 3.25736 16.5 2.37868 15.6213C1.5 14.7426 1.5 13.3284 1.5 10.5Z" stroke="#8F91A1" stroke-width="1.5"/>
<path id="Vector_2" d="M12 4.5C12 3.08579 12 2.37868 11.5607 1.93934C11.1213 1.5 10.4142 1.5 9 1.5C7.58579 1.5 6.87868 1.5 6.43934 1.93934C6 2.37868 6 3.08579 6 4.5" stroke="#8F91A1" stroke-width="1.5"/>
<path id="Vector_3" d="M12.75 6.75C12.75 7.16421 12.4142 7.5 12 7.5C11.5858 7.5 11.25 7.16421 11.25 6.75C11.25 6.33579 11.5858 6 12 6C12.4142 6 12.75 6.33579 12.75 6.75Z" fill="#8F91A1"/>
<path id="Vector_4" d="M6.75 6.75C6.75 7.16421 6.41421 7.5 6 7.5C5.58579 7.5 5.25 7.16421 5.25 6.75C5.25 6.33579 5.58579 6 6 6C6.41421 6 6.75 6.33579 6.75 6.75Z" fill="#8F91A1"/>
</g>
<defs>
<clipPath id="clip0_1_162">
<rect width="18" height="18" fill="white"/>
</clipPath>
</defs>
</svg>
