<svg width="22" height="23" viewBox="0 0 22 23" fill="none" xmlns="http://www.w3.org/2000/svg">
<g id="fi-br-arrow-small-right">
<path id="Vector" d="M15.0213 9.32077L11.864 6.16348C11.6162 5.91585 11.2803 5.77677 10.93 5.77686C10.5797 5.77694 10.2438 5.91617 9.99611 6.16392C9.74848 6.41168 9.6094 6.74766 9.60948 7.09795C9.60957 7.44824 9.7488 7.78416 9.99655 8.0318L12.144 10.1792H4.40218C4.05192 10.1792 3.716 10.3184 3.46833 10.566C3.22065 10.8137 3.08151 11.1496 3.08151 11.4999C3.08151 11.8501 3.22065 12.1861 3.46833 12.4337C3.716 12.6814 4.05192 12.8206 4.40218 12.8206H12.144L9.99655 14.968C9.7488 15.2156 9.60957 15.5515 9.60948 15.9018C9.6094 16.2521 9.74848 16.5881 9.99611 16.8358C10.2438 17.0836 10.5797 17.2228 10.93 17.2229C11.2803 17.223 11.6162 17.0839 11.864 16.8363L15.0213 13.679C15.5982 13.1005 15.9221 12.3169 15.9221 11.4999C15.9221 10.6829 15.5982 9.89926 15.0213 9.32077Z" fill="#374957"/>
</g>
</svg>
