<svg width="18" height="18" viewBox="0 0 18 18" fill="none" xmlns="http://www.w3.org/2000/svg">
<g id="Linear / Money / Wad Of Money">
<path id="Vector" d="M6.75 14.25C4.64331 14.25 3.58996 14.25 2.83329 13.7444C2.50572 13.5255 2.22447 13.2443 2.00559 12.9167C1.5 12.16 1.5 11.1067 1.5 9C1.5 6.89331 1.5 5.83996 2.00559 5.08329C2.22447 4.75572 2.50572 4.47447 2.83329 4.25559C3.58996 3.75 4.64331 3.75 6.75 3.75L11.25 3.75C13.3567 3.75 14.41 3.75 15.1667 4.25559C15.4943 4.47447 15.7755 4.75572 15.9944 5.08329C16.5 5.83996 16.5 6.89331 16.5 9C16.5 11.1067 16.5 12.16 15.9944 12.9167C15.7755 13.2443 15.4943 13.5255 15.1667 13.7444C14.41 14.25 13.3567 14.25 11.25 14.25H6.75Z" stroke="#8F91A1" stroke-width="1.5"/>
<path id="Vector_2" d="M6.75 6.75C5.50736 6.75 4.5 7.75736 4.5 9C4.5 10.2426 5.50736 11.25 6.75 11.25" stroke="#8F91A1" stroke-width="1.5"/>
<path id="Vector_3" d="M11.25 6.75C12.4926 6.75 13.5 7.75736 13.5 9C13.5 10.2426 12.4926 11.25 11.25 11.25" stroke="#8F91A1" stroke-width="1.5"/>
<path id="Vector_4" d="M6.75 3.75V13.875" stroke="#8F91A1" stroke-width="1.5" stroke-linecap="round"/>
<path id="Vector_5" d="M11.25 3.75V13.875" stroke="#8F91A1" stroke-width="1.5" stroke-linecap="round"/>
</g>
</svg>
